<svg width="176" height="88" viewBox="0 0 176 88" xmlns="http://www.w3.org/2000/svg"><title>Partners/CBN-2</title><g fill="none" fill-rule="evenodd"><g fill="#003299"><path d="M13.697 58.086H9.058v-6.318h4.552v1.165h-2.987V54.3h2.9v1.165h-2.9v1.543h3.103l-.03 1.077zM22.307 51.856v3.58c0 2.039-1.45 2.825-3.102 2.825-1.827 0-3.102-.874-3.102-2.824v-3.581h1.536v3.58c0 .874.667 1.456 1.537 1.456.87 0 1.536-.378 1.536-1.543v-3.493h1.595zM27.728 51.856c1.247 0 2.03.873 2.03 1.834 0 .67-.377 1.164-1.073 1.543.667.291.87 1.077 1.74 2.911h-1.74c-.667-1.368-.87-2.533-1.74-2.533h-.493v2.533h-1.536v-6.317h2.812v.029zm-1.276 2.533h.87c.377 0 .87-.204.87-.67 0-.466-.29-.67-.87-.67h-.783v1.369h-.087v-.03zM35.556 58.173c-2.32 0-3.566-1.66-3.566-3.202 0-1.543 1.246-3.203 3.566-3.203 2.319 0 3.565 1.747 3.565 3.203.03 1.66-1.333 3.202-3.565 3.202zm0-5.153c-1.16 0-2.03.786-2.03 1.95 0 1.165.783 1.952 2.03 1.952 1.16 0 1.942-.787 1.942-1.951 0-1.165-.783-1.95-1.942-1.95zM44.369 51.856c1.45 0 2.03.96 2.03 1.834 0 .873-.58 1.95-2.03 1.95h-1.247v2.533h-1.536v-6.317h2.783zm-1.276 2.533h.667c.667 0 .957-.292.957-.786 0-.495-.29-.67-1.16-.67h-.58v1.456h.116zM53.356 58.086h-4.639v-6.318h4.552v1.165h-2.986V54.3h2.899v1.165h-2.9v1.543h3.074v1.077zM62.256 58.086h-1.652l-.493-1.252h-2.812l-.493 1.252h-1.653l2.523-6.318h1.826l2.754 6.318zm-3.682-4.775l-.87 2.417h1.943l-1.073-2.417zM70.577 58.086h-1.363l-3.479-3.989v3.99h-1.536v-6.319h1.45l3.391 3.902v-3.902h1.537zM82.869 57.591c-.87.495-1.537.582-2.407.582-2.406 0-3.681-1.543-3.681-3.202 0-1.66 1.362-3.203 3.768-3.203.87 0 1.653.204 2.233.583v1.368c-.667-.378-1.363-.67-2.117-.67-1.362 0-2.232.786-2.232 1.951s.957 1.95 2.232 1.95c.783 0 1.363-.29 2.233-.669l-.03 1.31zM89.942 58.086h-4.638v-6.318h4.551v1.165h-2.899V54.3h2.9v1.165h-2.9v1.543h3.102v1.077zM98.727 58.086h-1.363l-3.479-3.989v3.99H92.35v-6.319h1.45l3.391 3.902v-3.902h1.537v6.318zM107.076 52.933h-2.232v5.153h-1.537v-5.153h-2.232v-1.165h6.088v1.165zM112.004 51.856c1.247 0 2.03.873 2.03 1.834 0 .67-.377 1.164-1.073 1.543.667.291.87 1.077 1.74 2.911h-1.74c-.667-1.368-.87-2.533-1.74-2.533h-.492v2.533h-1.537v-6.317h2.812v.029zm-1.16 2.533h.87c.377 0 .87-.204.87-.67 0-.466-.29-.67-.87-.67h-.782v1.369h-.087v-.03zM123.137 58.086h-1.653l-.492-1.252h-2.813l-.492 1.252h-1.653l2.522-6.318h1.827l2.754 6.318zm-3.682-4.775l-.87 2.417h1.943l-1.073-2.417zM129.892 58.086h-4.755v-6.318h1.537v5.154h3.189l.029 1.164zM138.502 51.856c1.45 0 2.03.873 2.03 1.543 0 .495-.29.96-.87 1.252.87.203 1.362.873 1.362 1.66 0 .669-.377 1.833-2.232 1.833h-3.102v-6.317h2.812v.029zm-1.16 2.416h.783c.58 0 .783-.378.783-.67 0-.29-.203-.67-.783-.67h-.783v1.34zm0 2.65h.87c.87 0 1.16-.204 1.16-.787 0-.494-.377-.67-.957-.67h-1.073v1.457zM149.837 58.086h-1.652l-.493-1.252h-2.812l-.493 1.252h-1.652l2.522-6.318h1.826l2.754 6.318zm-3.594-4.775l-.87 2.417h1.942l-1.072-2.417zM158.158 58.086h-1.363l-3.479-3.989v3.99h-1.536v-6.319h1.45l3.391 3.902v-3.902h1.537zM164.043 54.767l2.812 3.29h-1.942l-2.523-2.911v2.911h-1.536v-6.318h1.536v2.912l1.943-2.824h1.74z"/><g><path d="M58.69 72.177h-2.725v1.95h2.522v.787h-2.522v1.95h2.696v.787H54.98v-6.347h3.595v.873zM66.228 75.176c0 1.543-.87 2.533-2.812 2.533-1.363 0-2.61-.786-2.61-2.417v-3.9h.87v3.697c0 .67.087.96.377 1.252.377.378.783.582 1.363.582.667 0 1.16-.204 1.45-.495.29-.291.376-.786.376-1.369v-3.697h.87v3.785h.116v.029zM70.287 71.391c1.246 0 2.029.67 2.029 1.747 0 .786-.377 1.252-1.073 1.543.58.378.87.96 1.363 1.747.29.378.377.67.87 1.252h-1.073l-.87-1.252c-.87-1.252-1.16-1.456-1.652-1.456h-.377v2.708h-.87v-6.318l1.653.03zM69.62 74.1h.58c.956 0 1.246-.495 1.246-1.077 0-.583-.377-.961-1.246-.961h-.58v2.038zM78.317 71.304c2.03 0 3.392 1.455 3.392 3.202 0 1.66-1.247 3.203-3.392 3.203-2.03 0-3.392-1.543-3.392-3.203.116-1.747 1.363-3.202 3.392-3.202zm0 5.619c1.45 0 2.406-1.077 2.406-2.417a2.405 2.405 0 0 0-2.406-2.416c-1.334 0-2.406.96-2.406 2.416a2.405 2.405 0 0 0 2.406 2.417zM87.043 72.76c-.493-.495-1.072-.67-1.45-.67-.58 0-.956.291-.956.786 0 1.165 2.696 1.165 2.696 3.202 0 .961-.783 1.747-1.74 1.747a2.785 2.785 0 0 1-1.739-.582v-1.165c.493.583 1.073.874 1.653.874.667 0 1.072-.495 1.072-.786 0-1.252-2.696-1.456-2.696-3.203 0-1.077.783-1.66 1.943-1.66.493 0 .956.205 1.362.496v.96h-.145zM93.334 71.391h1.073l-2.32 2.999v3.319h-.869v-3.29l-2.32-2.911h1.073l1.653 2.125zM99.132 72.76c-.58-.495-1.072-.67-1.45-.67-.579 0-.956.291-.956.786 0 1.165 2.696 1.165 2.696 3.202 0 .961-.782 1.747-1.74 1.747a2.785 2.785 0 0 1-1.739-.582v-1.165c.493.583 1.073.874 1.653.874.667 0 1.073-.495 1.073-.786 0-1.252-2.697-1.456-2.697-3.203 0-1.077.783-1.66 1.943-1.66.493 0 .957.205 1.362.496v.96h-.145zM106.293 72.177h-2.116v5.445h-.87v-5.445h-2.116v-.786h5.218v.786zM111.888 72.177h-2.609v1.95h2.522v.787h-2.522v1.95h2.696v.787h-3.681v-6.347h3.565v.873zM120.035 77.709h-.87v-4.862l-1.942 2.416h-.203l-1.943-2.416v4.862h-.87V71.39h.87l2.03 2.62 2.116-2.62h.87v6.318z"/></g></g><path d="M68.663 21.548h5.218v.67c0 7.977 6.378 14.382 14.322 14.382 7.943 0 14.321-6.405 14.321-14.382v-.67h5.219v20.205h-39.08V21.548z" fill="#003299"/><path d="M75.128 22.218c0-7.191 5.798-13.014 12.959-13.014 7.16 0 12.959 5.823 12.959 13.014 0 7.19-5.798 13.014-12.959 13.014-7.045 0-12.959-5.823-12.959-13.014z" fill="#003299"/><path fill="#FFF315" d="M89.45 11.33l-.783.581.29.874-.754-.466-.783.466.29-.874-.783-.582h.986l.29-.873.29.873zM89.45 32.233l-.783.582.29.874-.754-.495-.783.495.29-.874-.783-.582h.986l.29-.874.29.874zM94.58 12.785l-.782.582.29.874-.667-.583-.782.583.29-.874-.754-.582h.87l.376-.96.29.96zM98.437 16.57l-.754.611.29.873-.783-.582-.783.582.29-.873-.754-.611h.957l.29-.874.29.874zM99.8 21.84l-.783.582.318.873-.782-.582-.783.582.29-.873-.783-.583h.986l.29-.873.29.873zM98.437 27.08l-.754.495.29.96-.783-.582-.783.582.29-.96-.754-.495h.957l.29-.961.29.96zM94.58 30.865l-.782.582.29.873-.667-.582-.782.582.29-.873-.754-.582h.87l.376-.874.29.874zM84.231 30.865l-.783.582.29.873-.782-.582-.754.582.29-.873-.783-.582h.957l.29-.874.29.874zM79.013 21.84l-.783.582.29.873-.783-.582-.754.582.29-.873-.695-.583h.87l.29-.873.29.873zM84.231 12.785l-.783.582.29.874-.782-.583-.754.583.29-.874-.783-.582h.957l.29-.96.29.96zM80.346 16.57l-.666.611.29.873-.783-.582-.754.582.29-.873-.783-.611h.957l.29-.874.29.874zM80.346 27.08l-.666.495.29.96-.783-.582-.754.582.29-.96-.783-.495h.957l.29-.961.29.96zM80.346 20.47h1.537c.783-3.114 3.566-5.356 6.958-5.356 1.942 0 3.769.786 5.044 2.125l-.493 1.252c-1.072-1.252-2.696-2.125-4.551-2.125-2.696 0-4.929 1.747-5.711 4.192h9.393l-.493 1.165h-9.19v1.164h8.61l-.493 1.165h-7.943c.782 2.416 2.986 4.192 5.71 4.192 1.827 0 3.48-.873 4.552-2.125v1.66c-1.246 1.077-2.812 1.659-4.551 1.659-3.276 0-6.088-2.33-6.958-5.357h-2.03l.493-1.165h1.363v-1.164h-1.826l.58-1.281z"/><path fill="#003299" d="M65.445 63.996h45.487v.67H65.445z"/></g></svg>