<svg width="40" height="48" viewBox="0 0 40 48" xmlns="http://www.w3.org/2000/svg" xmlns:xlink="http://www.w3.org/1999/xlink"><title>Rectangle</title><defs><path d="M30.05.022C32.767.324 40 4.505 40 10c-2.173-1.455-7.007-1.066-7.007-1.066a2.013 2.013 0 0 1-2.068-1.923S30.8 1.103 30.05.021z" id="a"/><mask id="b" x="0" y="0" width="9.95" height="9.978" fill="#fff"><use xlink:href="#a"/></mask></defs><g fill="none" fill-rule="evenodd"><path d="M0 2.001A2 2 0 0 1 1.992 0h27.111c1.1 0 2.746.481 3.672 1.084 0 0 2.768 1.716 3.864 2.812.96.96 2.336 3.39 2.336 3.39.566.947 1.025 2.61 1.025 3.71v35.002A1.998 1.998 0 0 1 38.003 48H1.997A1.999 1.999 0 0 1 0 45.999V2z" fill-opacity=".12" fill="#000"/><use stroke="#FFF" mask="url(#b)" stroke-width="2" xlink:href="#a"/></g></svg>