<svg width="40" height="40" viewBox="0 0 40 40" xmlns="http://www.w3.org/2000/svg"><title>logo</title><path d="M24.286 26.333l-2.143 2.111 4.286 4.223L20 39l-6.429-6.333 4.286-4.223-2.143-2.11-4.285 4.222L5 24.222 9.286 20 5 15.778l6.429-6.334 4.285 4.223 2.143-2.111-4.286-4.223L20 1l6.429 6.333-4.286 4.223 2.143 2.11 4.285-4.222L35 15.778 30.714 20 35 24.222l-6.429 6.334-4.285-4.223zm-15-2.11l2.143-2.112 2.142 2.111-2.142 2.111-2.143-2.11zm8.571 0L20 22.11l2.143 2.111L20 26.333l-2.143-2.11zM13.571 20l2.143-2.111L17.857 20l-2.143 2.111L13.571 20zm8.572 0l2.143-2.111L26.429 20l-2.143 2.111L22.143 20zm-4.286-4.222L20 13.667l2.143 2.11L20 17.89l-2.143-2.111zm8.572 0l2.142-2.111 2.143 2.11-2.143 2.112-2.142-2.111zm-17.143 0l2.143-2.111 2.142 2.11-2.142 2.112-2.143-2.111zm8.571 16.889L20 30.556l2.143 2.11L20 34.779l-2.143-2.111zm0-25.334L20 5.223l2.143 2.11L20 9.444l-2.143-2.11zm8.572 16.89l2.142-2.112 2.143 2.111-2.143 2.111-2.142-2.11z" fill="#A58F55" fill-rule="evenodd"/></svg>