<svg width="40" height="40" viewBox="0 0 40 40" xmlns="http://www.w3.org/2000/svg"><title>Rectangle 2</title><g fill="none" fill-rule="evenodd"><path d="M9.536 18.023a7.49 7.49 0 1 0 0-14.981 7.49 7.49 0 0 0 0 14.98zm0-2.996a4.494 4.494 0 1 1 0-8.99 4.494 4.494 0 0 1 0 8.99zM30.509 36a7.49 7.49 0 1 0 0-14.981 7.49 7.49 0 0 0 0 14.981zm0-2.996a4.494 4.494 0 1 1 0-8.989 4.494 4.494 0 0 1 0 8.989zM8.123 35.12L34.125 6.95 31.923 4.92 5.92 33.088l2.202 2.033z" fill="#A58F55"/><path d="M0 0h40v40H0z"/></g></svg>