<svg width="40" height="40" viewBox="0 0 40 40" xmlns="http://www.w3.org/2000/svg"><title>Fill 1</title><path d="M5.252 31.325l-.216-8.186 7.861 2.236-3.029 2.344c.433.613.901 1.154 1.406 1.659 2.308 2.344 5.518 3.75 9.051 3.75 3.534 0 6.708-1.406 9.016-3.75 2.163-2.128 3.534-5.049 3.75-8.294l2.524.721c-.324 3.678-1.983 6.96-4.435 9.412a15.349 15.349 0 0 1-10.855 4.507c-4.255 0-8.077-1.73-10.89-4.507a16.812 16.812 0 0 1-1.623-1.911l-2.56 2.019zM20.325 7.597c-3.533 0-6.743 1.406-9.051 3.714a12.685 12.685 0 0 0-3.714 8.547L5 19.136a15.297 15.297 0 0 1 4.435-9.628A15.284 15.284 0 0 1 20.325 5c4.22 0 8.078 1.695 10.855 4.508.613.613 1.19 1.298 1.695 2.02l2.524-1.984.216 8.186-7.861-2.2 3.101-2.416c-.469-.649-.937-1.262-1.514-1.803a12.669 12.669 0 0 0-9.016-3.714z" fill="#A58F55" fill-rule="evenodd"/></svg>